<?xml version="1.0" encoding="UTF-8"?>
<svg width="978px" height="682px" viewBox="0 0 978 682" version="1.1" xmlns="http://www.w3.org/2000/svg" xmlns:xlink="http://www.w3.org/1999/xlink">
    <!-- Generator: Sketch 50.2 (55047) - http://www.bohemiancoding.com/sketch -->
    <title>sheme SOFTAWARE</title>
    <desc>Created with Sketch.</desc>
    <defs>
        <path d="M28.4513583,0.00493612579 C27.9448081,0.0306382109 27.4484965,0.157140574 26.9915397,0.377021926 L7.07125706,9.96400504 C6.02683654,10.4663985 5.26823937,11.416547 5.01018677,12.5455107 L0.0957187749,34.0802971 C-0.133552631,35.0827126 0.0530001706,36.1351518 0.612897106,36.997963 C0.68009487,37.1023643 0.752365431,37.2034188 0.82944961,37.3007638 L14.6174749,54.5681112 C15.3404411,55.4732133 16.4365954,56.0002274 17.5957087,55.9999999 L39.7069932,55.9948677 C40.8656729,55.9957183 41.9617501,55.4696857 42.685227,54.565545 L56.4681569,37.2956317 C57.1915098,36.3900759 57.4625272,35.2046512 57.2044354,34.0751648 L52.2823244,12.5403784 C52.0242719,11.4114148 51.2656746,10.4612663 50.2212541,9.95887281 L30.2984238,0.377021926 C29.7236409,0.100428626 29.0885228,-0.0275140086 28.4513583,0.00493612579 Z" id="path-1"></path>
    </defs>
    <g id="Page-1" stroke="none" stroke-width="1" fill="none" fill-rule="evenodd">
        <g id="sheme-SOFTAWARE">
            <g id="lines" transform="translate(136.000000, 51.000000)">
                <path d="M254.591727,259.651551 L254.591727,328.214797" id="Line" stroke="#D9D9D9"></path>
                <path d="M127.613309,462.801909 L127.613309,531.365155" id="Line" stroke="#D9D9D9"></path>
                <path d="M127.613309,135.221957 L127.613309,434.868735" id="Line" stroke="#D9D9D9"></path>
                <path d="M402.521583,137.126492 L402.521583,436.77327" id="Line" stroke="#D9D9D9"></path>
                <path d="M704.730216,135.856802 L704.730216,435.50358" id="Line" stroke="#D9D9D9"></path>
                <path d="M253.956835,137.126492 L253.956835,218.386635" id="Line-2" stroke="#D9D9D9"></path>
                <path d="M565.053957,135.856802 L565.053957,217.116945" id="Line-2" stroke="#D9D9D9"></path>
                <path d="M566.323741,0 L566.323741,87.6085919" id="Line-2" stroke="#D9D9D9"></path>
                <path d="M126.978417,0 L126.978417,87.6085919" id="Line-2" stroke="#D9D9D9"></path>
                <path d="M0.634892086,139.031026 L0.634892086,236.797136" id="Line" stroke="#D1D1D1"></path>
                <path d="M0.634892086,215.212411 L0.634892086,312.97852" id="Line" stroke="#D1D1D1"></path>
            </g>
            <g id="K8s" transform="translate(748.000000, 479.000000)">
                <g id="2">
                    <g id="Rectangle-9">
                        <g id="path-1-link" fill="#000000" fill-rule="nonzero">
                            <rect id="path-1" x="0" y="0" width="191" height="70" rx="4"></rect>
                        </g>
                        <g id="path-1-link" fill="#F4F4F4">
                            <rect id="path-1" x="0" y="0" width="191" height="70" rx="4"></rect>
                        </g>
                    </g>
                    <text id="Kubernetes" fill="#4A4A4A" font-family=".AppleSystemUIFont" font-size="15" font-weight="normal">
                        <tspan x="28.5632813" y="40.3636364">Kubernetes</tspan>
                    </text>
                </g>
                <g id="Group" transform="translate(128.000000, 7.000000)">
                    <g id="kubernetes-logo" transform="translate(0.606667, 0.636364)"></g>
                    <g id="path3055" transform="translate(0.606667, 0.636364)" fill="#326CE5" fill-rule="nonzero" stroke="#FFFFFF">
                        <path d="M28.4513583,0.00493612579 C27.9448081,0.0306382109 27.4484965,0.157140574 26.9915397,0.377021926 L7.07125706,9.96400504 C6.02683654,10.4663985 5.26823937,11.416547 5.01018677,12.5455107 L0.0957187749,34.0802971 C-0.133552631,35.0827126 0.0530001706,36.1351518 0.612897106,36.997963 C0.68009487,37.1023643 0.752365431,37.2034188 0.82944961,37.3007638 L14.6174749,54.5681112 C15.3404411,55.4732133 16.4365954,56.0002274 17.5957087,55.9999999 L39.7069932,55.9948677 C40.8656729,55.9957183 41.9617501,55.4696857 42.685227,54.565545 L56.4681569,37.2956317 C57.1915098,36.3900759 57.4625272,35.2046512 57.2044354,34.0751648 L52.2823244,12.5403784 C52.0242719,11.4114148 51.2656746,10.4612663 50.2212541,9.95887281 L30.2984238,0.377021926 C29.7236409,0.100428626 29.0885228,-0.0275140086 28.4513583,0.00493612579 Z" id="path-3"></path>
                    </g>
                    <g id="path3059-Clipped" transform="translate(0.606667, 0.636364)">
                        <mask id="mask-2" fill="white">
                            <use xlink:href="#path-1"></use>
                        </mask>
                        <g id="path-3"></g>
                        <path d="M28.6487546,7.63636364 C27.9900706,7.63642998 27.4559932,8.22507298 27.4560715,8.95118569 C27.4560724,8.96232971 27.4583712,8.97297856 27.4586159,8.98405624 C27.4576454,9.08271724 27.4528421,9.20157717 27.4560715,9.28747671 C27.4717798,9.70627788 27.5637922,10.0268104 27.6191735,10.412661 C27.719504,11.2385035 27.8035741,11.9230767 27.7516938,12.5593608 C27.7012391,12.7992976 27.5231162,13.0187321 27.3643267,13.1712588 L27.3362935,13.6719025 C26.6205354,13.7307394 25.8999893,13.8384796 25.1802897,14.0006081 C22.0834232,14.6982469 19.4170758,16.2809602 17.3870747,18.4179044 C17.2553519,18.3287449 17.0249043,18.1647191 16.9563795,18.1144839 C16.743436,18.1430152 16.5282198,18.2082036 16.2479054,18.0462143 C15.7141616,17.6897454 15.2280395,17.1976946 14.6398221,16.6049671 C14.3702978,16.3214357 14.1751186,16.0514465 13.854894,15.7781464 C13.7821733,15.7160811 13.6711939,15.6321363 13.5898534,15.5682805 C13.3395016,15.3702424 13.0442202,15.2669621 12.7590528,15.2572745 C12.3924085,15.2448189 12.0394519,15.3870454 11.8084742,15.6744776 C11.3978479,16.1854685 11.5293154,16.9664866 12.101548,17.4191454 C12.1073545,17.4237331 12.1135377,17.4272997 12.1193873,17.4317879 C12.1980204,17.4950304 12.2943109,17.5760648 12.3665887,17.6290113 C12.706401,17.8779415 13.0168109,18.00537 13.3553942,18.2029816 C14.0687207,18.6400536 14.6600769,19.0024629 15.129128,19.43942 C15.3122931,19.6331374 15.3443068,19.9744855 15.368684,20.1221161 L15.7509542,20.4609356 C13.7045613,23.5164753 12.757474,27.2906845 13.3171713,31.1362792 L12.8176715,31.280404 C12.6860239,31.4490742 12.4999971,31.7144766 12.3054255,31.7936903 C11.6917438,31.985469 11.0010796,32.0558933 10.1672609,32.1426238 C9.77579089,32.1749199 9.43801736,32.1556466 9.02299875,32.23365 C8.93165512,32.250818 8.80438342,32.2837159 8.70444025,32.3069765 C8.70096618,32.3077048 8.69772045,32.3087243 8.69424638,32.309501 C8.68879878,32.3107551 8.68164187,32.3133767 8.6764071,32.3145581 C7.97342628,32.483081 7.52182961,33.1241648 7.66721379,33.7558054 C7.81263223,34.3875939 8.4992898,34.7718003 9.20648844,34.6205537 C9.21159352,34.6193966 9.21900651,34.6192024 9.22432771,34.6180292 C9.23231155,34.6162167 9.23934044,34.6123735 9.24726392,34.6104477 C9.34584682,34.5889769 9.46939002,34.5650883 9.55562854,34.5421781 C9.96365579,34.4337858 10.2591639,34.2745241 10.6259851,34.135089 C11.415149,33.8542616 12.0687629,33.619661 12.7055349,33.5282481 C12.9714873,33.5075814 13.2516908,33.6910561 13.3910728,33.7684559 L13.9109603,33.6799583 C15.1073277,37.36007 17.6145293,40.3345777 20.7892753,42.2010166 L20.5726555,42.7168313 C20.6507341,42.9171228 20.736851,43.1881202 20.6786897,43.3859196 C20.4471927,43.98153 20.0506681,44.6101986 19.5991407,45.3110764 C19.3805148,45.6348802 19.1567651,45.8861682 18.9594753,46.2567369 C18.9122655,46.3454077 18.8521396,46.4816175 18.8065672,46.5753284 C18.5000302,47.2260529 18.7248825,47.9755289 19.3137123,48.2567835 C19.9062413,48.5398043 20.6417268,48.2413018 20.9600227,47.5892584 C20.9605119,47.5883361 20.9621185,47.5876565 20.9625671,47.586734 C20.9628933,47.5860057 20.9622408,47.5849135 20.9625671,47.5842095 C21.0079037,47.4917635 21.0721332,47.3702479 21.1103781,47.2833176 C21.2793623,46.8992261 21.3355902,46.5700723 21.4544213,46.1985894 C21.7699926,45.4121122 21.9433741,44.5868984 22.3777888,44.0726953 C22.4967455,43.9318895 22.6906844,43.8777375 22.8917572,43.8243242 L23.1618949,43.3388514 C25.9295915,44.3928775 29.0275841,44.6757188 32.1223082,43.978563 C32.8282926,43.8195245 33.5098524,43.6136937 34.1687279,43.366665 C34.2446503,43.5002775 34.3857457,43.7571226 34.4235747,43.8217957 C34.6279081,43.8877536 34.8509377,43.9218144 35.0326586,44.1884287 C35.3576711,44.7393579 35.579939,45.3911196 35.8507168,46.1783613 C35.9695676,46.5498379 36.0283038,46.8790061 36.1973085,47.2630895 C36.2358282,47.3506324 36.2997364,47.4738543 36.3451195,47.56651 C36.6627459,48.2206715 37.4005621,48.5201945 37.9939784,48.2365636 C38.5827356,47.9551593 38.8078359,47.2057512 38.5011235,46.5551085 C38.4555454,46.4614009 38.3928808,46.3251853 38.3456669,46.236517 C38.1483575,45.8659589 37.9246437,45.6171767 37.7060014,45.2933849 C37.2544365,44.5925306 36.8799162,44.0103048 36.6483873,43.4147065 C36.5515773,43.107518 36.6647204,42.9164707 36.7401321,42.7168395 C36.6949708,42.6654789 36.5983304,42.375383 36.5413517,42.2389523 C39.840692,40.3061103 42.2742677,37.2206777 43.4171181,33.6572099 C43.5714453,33.6812747 43.8396778,33.7283608 43.9268117,33.7457074 C44.1061864,33.6283282 44.271115,33.4751761 44.5945104,33.5004426 C45.2312864,33.5918223 45.8848817,33.8264966 46.6740602,34.1072835 C47.0408887,34.2467 47.3363845,34.4085299 47.7444167,34.5169012 C47.8306561,34.5398066 47.9541968,34.5611762 48.0527813,34.5826423 C48.0607081,34.5845679 48.0677296,34.5884193 48.0757175,34.5902237 C48.0810429,34.591405 48.0884517,34.5915911 48.0935568,34.5927481 C48.8007963,34.7438071 49.4875762,34.3598257 49.6328315,33.7279998 C49.7780525,33.0963221 49.3266646,32.4550894 48.6236382,32.2867527 C48.521379,32.2636822 48.3763552,32.2245004 48.2770465,32.2058404 C47.8620238,32.127859 47.524256,32.1470902 47.1327844,32.1148143 C46.2989615,32.0281267 45.6083113,31.9576272 44.9946199,31.7658807 C44.7444002,31.6695727 44.5663932,31.3741657 44.4798252,31.2525945 L43.9981647,31.1135268 C44.2478951,29.3209655 44.1805576,27.4553812 43.7484149,25.5887456 C43.3122484,23.7047303 42.5414303,21.9816151 41.5134085,20.4634682 C41.6369624,20.3520287 41.870291,20.1470281 41.9364542,20.0867211 C41.9557948,19.8743939 41.939178,19.6517756 42.1607194,19.4166676 C42.6297467,18.9796862 43.2211504,18.6173382 43.9344531,18.1802291 C44.2730258,17.9825996 44.5860078,17.8552067 44.9258072,17.6062587 C45.0026485,17.5499633 45.1075761,17.4608118 45.1882993,17.3963929 C45.7604104,16.943582 45.8921315,16.1626108 45.4813731,15.6517252 C45.0706147,15.1408395 44.2746535,15.0927171 43.7025424,15.545528 C43.6211089,15.6095174 43.5106098,15.692992 43.4375018,15.7553938 C43.1172919,16.0287117 42.9195349,16.2986694 42.6500252,16.5822146 C42.0618396,17.1749728 41.575667,17.6694932 41.041942,18.0259904 C40.8106626,18.1595811 40.4719039,18.1133577 40.3181729,18.104374 L39.8645456,18.4254941 C37.2778467,15.7343106 33.7559977,14.0137231 29.963764,13.6794881 C29.9531575,13.5218129 29.939262,13.236804 29.9357309,13.1510307 C29.7804814,13.0036372 29.5929378,12.8778019 29.5458152,12.5593608 C29.4939349,11.9230767 29.5805535,11.2385035 29.680884,10.412661 C29.7362653,10.0268104 29.8282776,9.70627788 29.8439859,9.28747671 C29.8475579,9.19227307 29.8418248,9.05412533 29.8414416,8.95118569 C29.8413633,8.22507298 29.3074425,7.63629729 28.6487586,7.63636364 L28.6487546,7.63636364 Z M27.1553523,16.814833 L26.8011153,23.0223102 L26.7756305,23.0349527 C26.7518715,23.5902809 26.2912211,24.0337117 25.7256618,24.0337117 C25.493991,24.0337117 25.2801536,23.9598964 25.1063841,23.8339599 L25.0961902,23.8390169 L19.9661243,20.2308418 C21.5428023,18.6926092 23.5594974,17.5558553 25.8836668,17.0322843 C26.3082203,16.9366437 26.7325847,16.8656781 27.1553523,16.814833 Z M30.1447053,16.814833 C32.8581892,17.1459512 35.3676382,18.3650138 37.2906094,20.2333703 L32.1936734,23.8187889 L32.1758342,23.8112074 C31.7234342,24.1390383 31.0860335,24.0576972 30.7334013,23.6190411 C30.5889485,23.4393385 30.513155,23.2280421 30.5040392,23.0147287 L30.4989423,23.0122042 L30.1447053,16.814833 Z M18.1057426,22.5494799 L22.7898268,26.7063403 L22.7847297,26.7316255 C23.2075202,27.0962939 23.2698667,27.7291052 22.9172501,28.1678156 C22.772807,28.3475256 22.5794595,28.4680595 22.371878,28.5243347 L22.366781,28.5445627 L16.3625905,30.2639453 C16.0569961,27.4914776 16.715588,24.7964186 18.1057426,22.5494799 Z M39.1586364,22.5520044 C39.8546005,23.6712262 40.3816196,24.9212846 40.6953625,26.2764907 C41.0053427,27.6154471 41.0831366,28.9520095 40.9553063,30.2437133 L34.9205342,28.5192736 L34.9154372,28.4939886 C34.3750397,28.3474535 34.0429291,27.8020588 34.168736,27.2550217 C34.2202788,27.0309259 34.3401742,26.8413471 34.5025855,26.7012793 L34.5000411,26.6886368 L39.1586405,22.5520044 L39.1586364,22.5520044 Z M27.6879822,27.0274563 L29.6069785,27.0274563 L30.7996615,28.5066311 L30.3715189,30.352439 L28.6487546,31.1742028 L26.9208933,30.3499104 L26.4927506,28.5041026 L27.6879822,27.0274563 Z M33.8399838,32.0895212 C33.9215323,32.0854352 34.0027252,32.0927254 34.0820881,32.1072207 L34.0922821,32.0945782 L40.3028984,33.1363218 C39.3939721,35.6699313 37.6547091,37.864841 35.3308375,39.333685 L32.9199868,33.5560535 L32.9276281,33.5459395 C32.7061676,33.0353847 32.9277912,32.4366699 33.4373217,32.1931899 C33.5677748,32.1308544 33.704066,32.0963373 33.8399797,32.0895212 L33.8399838,32.0895212 Z M23.4091044,32.1148063 C23.8830575,32.1214006 24.308173,32.4477799 24.4182977,32.9264561 C24.4698535,33.1505486 24.444761,33.3725853 24.359683,33.568696 L24.3775223,33.5914525 L21.9921563,39.3109285 C19.7619687,37.891034 17.9856164,35.7650331 17.035386,33.1565539 L23.1924847,32.1198673 L23.2026785,32.1325098 C23.2715491,32.1199353 23.3413967,32.1138677 23.4091044,32.1148103 L23.4091044,32.1148063 Z M28.6105276,34.6205577 C28.7756234,34.6145379 28.9431454,34.6481472 29.1023818,34.7242263 C29.3111124,34.8239529 29.4723566,34.9809759 29.5738484,35.1692431 L29.5967846,35.1692431 L32.6320099,40.6105835 C32.2380951,40.7415989 31.8331292,40.8535691 31.4189392,40.9468746 C29.097629,41.4698015 26.7836943,41.3113569 24.6884354,40.602998 L27.7160152,35.1717716 L27.7211122,35.1717716 C27.9027809,34.8348202 28.2473174,34.6337973 28.6105276,34.6205577 Z" id="path3059" stroke="#FFFFFF" stroke-width="0.25" fill="#FFFFFF" fill-rule="nonzero" mask="url(#mask-2)"></path>
                    </g>
                </g>
                <rect id="Rectangle-2" fill="#FFFFFF" fill-rule="nonzero" style="mix-blend-mode: color;" x="123.513333" y="3.81818182" width="63.6666667" height="62.3636364"></rect>
            </g>
            <g id="Gateway-API" transform="translate(0.000000, 127.000000)">
                <g id="Rectangle-9">
                    <g id="path-5-link" fill="#000000" fill-rule="nonzero">
                        <rect id="path-5" x="0" y="0" width="978" height="64" rx="4"></rect>
                    </g>
                    <g id="path-5-link" fill="#D0D0D0">
                        <rect id="path-5" x="0" y="0" width="978" height="64" rx="4"></rect>
                    </g>
                </g>
                <g transform="translate(431.844156, 22.480000)" fill="#4A4A4A" font-family="Helvetica" font-size="15" font-weight="normal">
                    <text>
                        <tspan x="0.160626974" y="15.52">Gateway API</tspan>
                    </text>
                </g>
            </g>
            <g id="Kube" transform="translate(748.000000, 366.000000)">
                <g id="Rectangle-9">
                    <g id="path-7-link" fill="#000000" fill-rule="nonzero">
                        <rect id="path-7" x="0" y="0" width="191" height="64" rx="4"></rect>
                    </g>
                    <g id="path-7-link" fill="#F4F4F4">
                        <rect id="path-7" x="0" y="0" width="191" height="64" rx="4"></rect>
                    </g>
                </g>
                <g transform="translate(72.580000, 21.200000)" fill="#4A4A4A" font-family=".AppleSystemUIFont" font-size="15" font-weight="normal">
                    <text>
                        <tspan x="0.327348661" y="15.52">Kube</tspan>
                    </text>
                </g>
            </g>
            <g id="Mail" transform="translate(443.000000, 485.000000)">
                <g id="Rectangle-9">
                    <g id="path-9-link" fill="#000000" fill-rule="nonzero">
                        <rect id="path-9" x="0" y="0" width="191" height="64" rx="4"></rect>
                    </g>
                    <g id="path-9-link" fill="#F4F4F4">
                        <rect id="path-9" x="0" y="0" width="191" height="64" rx="4"></rect>
                    </g>
                </g>
                <g transform="translate(77.673333, 21.200000)" fill="#4A4A4A" font-family=".AppleSystemUIFont" font-size="15" font-weight="normal">
                    <text>
                        <tspan x="0.0509831207" y="15.52">Mail</tspan>
                    </text>
                </g>
            </g>
            <g id="Users" transform="translate(295.000000, 254.000000)">
                <g id="Rectangle-9">
                    <g id="path-13-link" fill="#000000" fill-rule="nonzero">
                        <rect id="path-13" x="0" y="0" width="191" height="64" rx="4"></rect>
                    </g>
                    <g id="path-13-link" fill="#F4F4F4">
                        <rect id="path-13" x="0" y="0" width="191" height="64" rx="4"></rect>
                    </g>
                </g>
                <g transform="translate(70.000000, 22.000000)" fill="#4A4A4A" font-family="Helvetica" font-size="15" font-weight="normal">
                    <text>
                        <tspan x="0.01554358" y="15.52">Users</tspan>
                    </text>
                </g>
            </g>
            <g id="Web-UI" transform="translate(166.000000, 0.000000)">
                <g id="Rectangle-9">
                    <g id="path-15-link" fill="#000000" fill-rule="nonzero">
                        <rect id="path-15" x="0" y="0" width="191" height="64" rx="4"></rect>
                    </g>
                    <g id="path-15-link" fill="#9B9B9B">
                        <rect id="path-15" x="0" y="0" width="191" height="64" rx="4"></rect>
                    </g>
                </g>
                <g id="UI" transform="translate(67.486667, 21.200000)" fill="#FFFFFF" font-family="OpenSans, Open Sans" font-size="15" font-weight="normal">
                    <text id="Web-UI">
                        <tspan x="0" y="16.8">Web UI</tspan>
                    </text>
                </g>
            </g>
            <g id="PostgreSQL" transform="translate(103.000000, 436.000000)" fill="#4A4A4A" font-family="Helvetica" font-size="15" font-weight="normal">
                <g id="PostreSQL">
                    <text>
                        <tspan x="0" y="15">PostreSQL</tspan>
                    </text>
                </g>
            </g>
            <g id="Permissions" transform="translate(42.000000, 254.000000)">
                <g id="Rectangle-9">
                    <g id="path-17-link" fill="#000000" fill-rule="nonzero">
                        <rect id="path-17" x="0" y="0" width="191" height="64" rx="4"></rect>
                    </g>
                    <g id="path-17-link" fill="#F4F4F4">
                        <rect id="path-17" x="0" y="0" width="191" height="64" rx="4"></rect>
                    </g>
                </g>
                <g id="Resource-Manager" transform="translate(52.000000, 22.000000)" fill="#4A4A4A" font-family="Helvetica" font-size="15" font-weight="normal">
                    <text id="Permissions">
                        <tspan x="0" y="15.52">Permissions</tspan>
                    </text>
                </g>
            </g>
            <g id="chkit" transform="translate(606.000000, 0.000000)">
                <g id="Rectangle-9">
                    <g id="path-19-link" fill="#000000" fill-rule="nonzero">
                        <rect id="path-19" x="0" y="0" width="191" height="64" rx="4"></rect>
                    </g>
                    <g id="path-19-link" fill="#9B9B9B">
                        <rect id="path-19" x="0" y="0" width="191" height="64" rx="4"></rect>
                    </g>
                </g>
                <g transform="translate(73.853333, 21.200000)" fill="#FFFFFF" font-family="OpenSans, Open Sans" font-size="15" font-weight="normal">
                    <text>
                        <tspan x="0.0245589073" y="16.8">chkit</tspan>
                    </text>
                </g>
            </g>
            <g id="Auth" transform="translate(606.000000, 254.000000)">
                <g id="Rectangle-9">
                    <g id="path-21-link" fill="#000000" fill-rule="nonzero">
                        <rect id="path-21" x="0" y="0" width="191" height="64" rx="4"></rect>
                    </g>
                    <g id="path-21-link" fill="#F4F4F4">
                        <rect id="path-21" x="0" y="0" width="191" height="64" rx="4"></rect>
                    </g>
                </g>
                <g transform="translate(74.853333, 21.200000)" fill="#4A4A4A" font-family=".AppleSystemUIFont" font-size="15" font-weight="normal">
                    <text>
                        <tspan x="0.091783886" y="15.52">Auth</tspan>
                    </text>
                </g>
            </g>
            <g id="001-cylinder-2" transform="translate(103.000000, 337.000000)">
                <rect id="Rectangle-path" fill="#B9B7BA" fill-rule="nonzero" x="0" y="52.84375" width="5.53066038" height="5.5625"></rect>
                <g id="Rectangle" transform="translate(2.528302, 17.800000)">
                    <g id="path-23-link" fill="#F4F4F4">
                        <rect id="path-23" x="0.126415094" y="0" width="60.1735849" height="58.74"></rect>
                    </g>
                    <rect id="Rectangle-path" stroke="#979797" x="0.758490566" y="0.635714286" width="58.909434" height="57.4685714"></rect>
                </g>
                <ellipse id="Oval-2" fill="#F4F4F4" fill-rule="nonzero" cx="31.8566038" cy="76.985" rx="28.3169811" ry="6.675"></ellipse>
                <ellipse id="Oval" fill="#F4F4F4" fill-rule="nonzero" cx="33.1839623" cy="15.575" rx="27.8745283" ry="12.905"></ellipse>
                <polygon id="Rectangle-path" fill="#B9B7BA" fill-rule="nonzero" points="0 36.1186987 5.53066038 36.1186987 5.53066038 64.6472013 0 65.6743652"></polygon>
                <path d="M33.1839623,0 C14.2663384,0 0,7.17284375 0,16.6875 L0,36.15625 L5.53066038,36.15625 L5.53066038,26.1604375 C11.3765684,30.5770625 21.373237,33.375 33.1839623,33.375 C44.9946875,33.375 54.9913561,30.5770625 60.8372642,26.1604375 L60.8372642,72.3125 C60.8372642,77.5662812 49.0127123,83.4375 33.1839623,83.4375 C17.3552123,83.4375 5.53066038,77.5662812 5.53066038,72.3125 L5.53066038,63.96875 L0,63.96875 L0,72.3125 C0,81.8271562 14.2663384,89 33.1839623,89 C52.1015861,89 66.3679245,81.8271562 66.3679245,72.3125 L66.3679245,16.6875 C66.3679245,7.17284375 52.1015861,0 33.1839623,0 Z M33.1839623,27.8125 C17.3552123,27.8125 5.53066038,21.9412812 5.53066038,16.6875 C5.53066038,11.4337187 17.3552123,5.5625 33.1839623,5.5625 C49.0127123,5.5625 60.8372642,11.4337187 60.8372642,16.6875 C60.8372642,21.9412812 49.0127123,27.8125 33.1839623,27.8125 Z" id="Shape" fill="#B9B7BA" fill-rule="nonzero"></path>
            </g>
            <g id="001-cylinder-2" transform="translate(357.000000, 337.000000)">
                <rect id="Rectangle-path" fill="#B9B7BA" fill-rule="nonzero" x="0" y="52.84375" width="5.53066038" height="5.5625"></rect>
                <g id="Rectangle" transform="translate(2.528302, 17.800000)">
                    <g id="path-24-link" fill="#F4F4F4">
                        <rect id="path-24" x="0.126415094" y="0" width="60.1735849" height="58.74"></rect>
                    </g>
                    <rect id="Rectangle-path" stroke="#979797" x="0.758490566" y="0.635714286" width="58.909434" height="57.4685714"></rect>
                </g>
                <ellipse id="Oval-2" fill="#F4F4F4" fill-rule="nonzero" cx="31.8566038" cy="76.985" rx="28.3169811" ry="6.675"></ellipse>
                <ellipse id="Oval" fill="#F4F4F4" fill-rule="nonzero" cx="33.1839623" cy="15.575" rx="27.8745283" ry="12.905"></ellipse>
                <polygon id="Rectangle-path" fill="#B9B7BA" fill-rule="nonzero" points="0 36.1186987 5.53066038 36.1186987 5.53066038 64.6472013 0 65.6743652"></polygon>
                <path d="M33.1839623,0 C14.2663384,0 0,7.17284375 0,16.6875 L0,36.15625 L5.53066038,36.15625 L5.53066038,26.1604375 C11.3765684,30.5770625 21.373237,33.375 33.1839623,33.375 C44.9946875,33.375 54.9913561,30.5770625 60.8372642,26.1604375 L60.8372642,72.3125 C60.8372642,77.5662812 49.0127123,83.4375 33.1839623,83.4375 C17.3552123,83.4375 5.53066038,77.5662812 5.53066038,72.3125 L5.53066038,63.96875 L0,63.96875 L0,72.3125 C0,81.8271562 14.2663384,89 33.1839623,89 C52.1015861,89 66.3679245,81.8271562 66.3679245,72.3125 L66.3679245,16.6875 C66.3679245,7.17284375 52.1015861,0 33.1839623,0 Z M33.1839623,27.8125 C17.3552123,27.8125 5.53066038,21.9412812 5.53066038,16.6875 C5.53066038,11.4337187 17.3552123,5.5625 33.1839623,5.5625 C49.0127123,5.5625 60.8372642,11.4337187 60.8372642,16.6875 C60.8372642,21.9412812 49.0127123,27.8125 33.1839623,27.8125 Z" id="Shape" fill="#B9B7BA" fill-rule="nonzero"></path>
            </g>
            <text id="PostreSQL" fill="#4A4A4A" font-family="Helvetica" font-size="15" font-weight="normal">
                <tspan x="357" y="449">PostreSQL</tspan>
            </text>
            <g id="Resource" transform="translate(168.000000, 483.000000)">
                <g id="Rectangle-9">
                    <g id="path-25-link" fill="#000000" fill-rule="nonzero">
                        <rect id="path-25" x="0" y="0" width="191" height="64" rx="4"></rect>
                    </g>
                    <g id="path-25-link" fill="#F4F4F4">
                        <rect id="path-25" x="0" y="0" width="191" height="64" rx="4"></rect>
                    </g>
                </g>
                <g id="Archive" transform="translate(56.026667, 22.480000)" fill="#4A4A4A" font-family="Helvetica" font-size="15" font-weight="normal">
                    <text id="Resource">
                        <tspan x="0" y="15.52">Resource</tspan>
                    </text>
                </g>
            </g>
            <g id="MongoDB" transform="translate(230.000000, 663.000000)" fill="#4A4A4A" font-family=".AppleSystemUIFont" font-size="15" font-weight="normal">
                <text>
                    <tspan x="0" y="15">MongoDB</tspan>
                </text>
            </g>
            <g id="001-cylinder-2" transform="translate(230.000000, 565.000000)">
                <rect id="Rectangle-path" fill="#B9B7BA" fill-rule="nonzero" x="0" y="52.84375" width="5.53066038" height="5.5625"></rect>
                <g id="Rectangle" transform="translate(2.528302, 17.800000)">
                    <g id="path-27-link" fill="#F4F4F4">
                        <rect id="path-27" x="0.126415094" y="0" width="60.1735849" height="58.74"></rect>
                    </g>
                    <rect id="Rectangle-path" stroke="#979797" x="0.758490566" y="0.635714286" width="58.909434" height="57.4685714"></rect>
                </g>
                <ellipse id="Oval-2" fill="#F4F4F4" fill-rule="nonzero" cx="31.8566038" cy="76.985" rx="28.3169811" ry="6.675"></ellipse>
                <ellipse id="Oval" fill="#F4F4F4" fill-rule="nonzero" cx="33.1839623" cy="15.575" rx="27.8745283" ry="12.905"></ellipse>
                <polygon id="Rectangle-path" fill="#B9B7BA" fill-rule="nonzero" points="0 36.1186987 5.53066038 36.1186987 5.53066038 64.6472013 0 65.6743652"></polygon>
                <path d="M33.1839623,0 C14.2663384,0 0,7.17284375 0,16.6875 L0,36.15625 L5.53066038,36.15625 L5.53066038,26.1604375 C11.3765684,30.5770625 21.373237,33.375 33.1839623,33.375 C44.9946875,33.375 54.9913561,30.5770625 60.8372642,26.1604375 L60.8372642,72.3125 C60.8372642,77.5662813 49.0127123,83.4375 33.1839623,83.4375 C17.3552123,83.4375 5.53066038,77.5662813 5.53066038,72.3125 L5.53066038,63.96875 L0,63.96875 L0,72.3125 C0,81.8271563 14.2663384,89 33.1839623,89 C52.1015861,89 66.3679245,81.8271563 66.3679245,72.3125 L66.3679245,16.6875 C66.3679245,7.17284375 52.1015861,0 33.1839623,0 Z M33.1839623,27.8125 C17.3552123,27.8125 5.53066038,21.9412813 5.53066038,16.6875 C5.53066038,11.4337188 17.3552123,5.5625 33.1839623,5.5625 C49.0127123,5.5625 60.8372642,11.4337188 60.8372642,16.6875 C60.8372642,21.9412813 49.0127123,27.8125 33.1839623,27.8125 Z" id="Shape" fill="#B9B7BA" fill-rule="nonzero"></path>
            </g>
        </g>
    </g>
</svg>